<?xml version="1.0" encoding="UTF-8"?>
<svg id="Layer_2" data-name="Layer 2" xmlns="http://www.w3.org/2000/svg" xmlns:xlink="http://www.w3.org/1999/xlink" viewBox="0 0 1050.7 317.08">
  <defs>
    
    <linearGradient id="linear-gradient" x1="500.36" y1="156.99" x2="651.27" y2="156.99" gradientUnits="userSpaceOnUse">
      <stop offset="0" stop-color="#1d3666"></stop>
      <stop offset="1" stop-color="#2bb1e6"></stop>
    </linearGradient>
  </defs>
  <g id="Layer_1-2" data-name="Layer 1">
    <g>
      <g>
        <path class="cls-4" d="M789.29,0h-101.82c-.88,0-1.71.41-2.24,1.11l-62.2,81.12c-.79,1.03-.78,2.46.02,3.47l53.23,67.56L791.53,4.56c1.44-1.86.12-4.56-2.24-4.56Z"></path>
        <path class="cls-2" d="M801.41,311.89l-125.2-158.44-52.45,68.26c-.89,1.16-.88,2.79.03,3.94l71.23,90.22c.61.77,1.53,1.22,2.52,1.22h101.36c2.68,0,4.17-3.09,2.51-5.19Z"></path>
        <path class="cls-3" d="M572.79,52.32c-1.15-1.45-2.9-2.3-4.75-2.3h-58.1c-5.07,0-7.9,5.84-4.77,9.82l71.05,90.25c1.72,2.19,1.73,5.26.04,7.46l-74.61,96.63c-3.08,3.99-.24,9.78,4.8,9.78h57.84c1.87,0,3.64-.86,4.79-2.34l81.08-104.77c1.5-1.93,1.48-4.64-.03-6.55l-77.33-97.98Z"></path>
      </g>
      <g>
        <path class="cls-1" d="M51.72,192.95l-4.69-11.94h-28.64l-4.69,11.94H0l25.02-61.8h15.38l25.02,61.8h-13.7ZM22.63,170.32h20.07l-9.9-25.64h-.18l-9.99,25.64Z"></path>
        <path class="cls-1" d="M148.17,131.16v61.8h-13l-31.12-43.06h-.18v43.06h-12.73v-61.8h13.08l30.94,42.7h.27v-42.7h12.73Z"></path>
        <path class="cls-1" d="M225.53,192.95l-4.69-11.94h-28.64l-4.69,11.94h-13.7l25.02-61.8h15.38l25.02,61.8h-13.7ZM196.44,170.32h20.07l-9.9-25.64h-.18l-9.99,25.64Z"></path>
        <path class="cls-1" d="M264.16,131.16h12.73v50.48h33.33v11.32h-46.06v-61.8Z"></path>
        <path class="cls-1" d="M388.38,131.16l-24.05,40.14v21.66h-12.64v-21.75l-23.87-40.05h14.68l15.56,27.58h.18l15.38-27.58h14.76Z"></path>
        <path class="cls-1" d="M462.46,131.16v11.23h-19.89v50.57h-12.73v-50.57h-19.98v-11.23h52.6Z"></path>
        <path class="cls-1" d="M503.22,131.16v61.8h-12.64v-61.8h12.64Z"></path>
      </g>
      <g>
        <path class="cls-1" d="M754,127.05h12.73v50.48h33.33v11.32h-46.06v-61.8Z"></path>
        <path class="cls-1" d="M873.44,188.84l-4.68-11.93h-28.65l-4.68,11.93h-13.7l25.02-61.8h15.39l25.02,61.8h-13.71ZM844.35,166.21h20.07l-9.9-25.64h-.18l-9.99,25.64Z"></path>
        <path class="cls-1" d="M959.64,157.46c1.3.35,2.55.92,3.76,1.68,1.21.77,2.26,1.72,3.14,2.87.88,1.15,1.59,2.49,2.12,4.02s.79,3.21.79,5.04c0,2.83-.53,5.35-1.59,7.56-1.06,2.21-2.53,4.07-4.42,5.57-1.89,1.5-4.16,2.65-6.81,3.45-2.65.8-5.57,1.19-8.75,1.19h-35.01v-61.8h33.6c6.95,0,12.29,1.56,16,4.69,3.72,3.12,5.57,7.54,5.57,13.26,0,2.89-.75,5.44-2.26,7.65-1.5,2.21-3.55,3.79-6.14,4.73v.09ZM925.51,152.6h19.8c3.71,0,6.31-.58,7.78-1.72,1.47-1.15,2.21-2.9,2.21-5.26s-.77-4.08-2.3-5.35c-1.53-1.27-4.1-1.9-7.69-1.9h-19.8v14.23ZM946.73,177.62c3.77,0,6.38-.56,7.82-1.68,1.45-1.12,2.17-2.86,2.17-5.22,0-2.47-.74-4.33-2.21-5.57-1.47-1.24-4.07-1.86-7.78-1.86h-21.22v14.32h21.22Z"></path>
        <path class="cls-1" d="M1036.91,153.83c3.18.94,5.79,2.14,7.82,3.58,2.04,1.45,3.54,3.21,4.51,5.31.97,2.09,1.46,4.55,1.46,7.38,0,3.06-.62,5.84-1.86,8.31-1.24,2.48-3.06,4.6-5.48,6.37-2.42,1.77-5.38,3.12-8.88,4.07-3.51.94-7.53,1.41-12.07,1.41-2.47,0-4.98-.18-7.52-.53-2.53-.35-4.98-.9-7.33-1.64-2.36-.74-4.52-1.68-6.5-2.83-1.97-1.15-3.67-2.55-5.08-4.2l8.57-8.84c1.06,1.12,2.31,2.09,3.76,2.92,1.44.83,2.97,1.52,4.6,2.08,1.62.56,3.25.99,4.9,1.28,1.65.3,3.19.44,4.6.44,5.6,0,9.59-.71,11.98-2.12,2.39-1.41,3.58-3.39,3.58-5.92,0-2.36-1.06-4.15-3.19-5.39-2.12-1.24-5.78-2.18-10.96-2.83l-2.47-.35c-4.25-.59-7.84-1.34-10.79-2.25-2.95-.91-5.35-2.09-7.2-3.54-1.86-1.44-3.2-3.18-4.02-5.22-.82-2.03-1.24-4.43-1.24-7.21s.6-5.39,1.81-7.69c1.21-2.3,2.95-4.24,5.21-5.83,2.27-1.59,5.04-2.81,8.31-3.67,3.27-.85,6.94-1.28,11-1.28,5.13,0,9.65.68,13.57,2.03,3.92,1.36,7.47,3.36,10.65,6.01l-8.84,8.66c-.95-.88-2.06-1.68-3.36-2.39-1.3-.71-2.64-1.28-4.02-1.72-1.39-.44-2.77-.78-4.16-1.02-1.39-.24-2.67-.35-3.85-.35-2.71,0-4.93.18-6.67.53-1.74.35-3.13.83-4.15,1.41-1.04.59-1.76,1.3-2.17,2.12-.41.83-.62,1.71-.62,2.65,0,.77.15,1.52.44,2.25.29.74.87,1.43,1.72,2.08.85.65,2.08,1.25,3.67,1.81,1.59.56,3.68,1.05,6.28,1.46l2.56.35c4.42.59,8.22,1.36,11.41,2.3Z"></path>
      </g>
    </g>
  </g>
</svg>